PathFileType	4	(X/Y/Z)	/Users/niels/Desktop/University/Third Semester/Perception and Action/Exam/Gymnastics Motion Tracking/Code for Gym Tracking/Analyzed Data/Webcam_Backflip/id2_3_pure_Sports2D/id2_3_pure_Sports2D_px_person00.trc
DataRate	CameraRate	NumFrames	NumMarkers	Units	OrigDataRate	OrigDataStartFrame	OrigNumFrames
29.874476987447697	29.874476987447697	9	22	m	29.874476987447697	0	239
Frame#	Time	Hip			RHip			RKnee			RAnkle			RBigToe			RSmallToe			RHeel			LHip			LKnee			LAnkle			LBigToe			LSmallToe			LHeel			Neck			Head			Nose			RShoulder			RElbow			RWrist			LShoulder			LElbow			LWrist		
		X1	Y1	Z1	X2	Y2	Z2	X3	Y3	Z3	X4	Y4	Z4	X5	Y5	Z5	X6	Y6	Z6	X7	Y7	Z7	X8	Y8	Z8	X9	Y9	Z9	X10	Y10	Z10	X11	Y11	Z11	X12	Y12	Z12	X13	Y13	Z13	X14	Y14	Z14	X15	Y15	Z15	X16	Y16	Z16	X17	Y17	Z17	X18	Y18	Z18	X19	Y19	Z19	X20	Y20	Z20	X21	Y21	Z21	X22	Y22	Z22
0	0.0	0.9412058322111826	-0.5652256528947126	0.0	0.9412054124313288	-0.5652236332961931	0.0	0.9496391975604217	-0.677022978693104	0.0	0.9264403064576723	-0.7972521743051665	0.0	0.9601860555711393	-0.814125735108084	0.0	0.9475298889372994	-0.820457818301998	0.0	0.9179985921805175	-0.8162406635484949	0.0	0.9475307534768451	-0.5652205236252756	0.0	0.951748528498046	-0.6770187141530565	0.0	0.9348724101131178	-0.7888155964728959	0.0	0.9770599157491676	-0.8056910689683193	0.0	0.9728399789235346	-0.8014718191563451	0.0	0.9222173661739695	-0.8035791598548362	0.0	0.9433114818863744	-0.4091273550904988	0.0	0.9665158160608228	-0.3331848973677946	0.0	0.966514378979363	-0.37326162578302086	0.0	0.9348760642489149	-0.4154523824337292	0.0	0.9390883875459977	-0.33107878760168813	0.0	0.9517545736532492	-0.26146827902730896	0.0	0.9433123543375549	-0.4154519540869066	0.0	0.9496413246279287	-0.3374092221559101	0.0	0.9559689410037153	-0.2741287408551906	0.0
1	0.033473389355742296	0.9421256782684037	-0.5645203663649639	0.0	0.9418790069030486	-0.5643929043756971	0.0	0.9493600111238899	-0.6774235580828947	0.0	0.925978400248705	-0.7971605167881867	0.0	0.9605587893319153	-0.8145238704873419	0.0	0.9480822676432199	-0.8210105311913856	0.0	0.9171557239821541	-0.8163972571008028	0.0	0.9481024991087008	-0.5641713644448344	0.0	0.9523182071741416	-0.6770913001230209	0.0	0.9354262938841782	-0.7885820091728392	0.0	0.9769474171338571	-0.8054581430742777	0.0	0.9733528086123414	-0.8012429698244997	0.0	0.9221174522447297	-0.8035505891953629	0.0	0.943670142609045	-0.4079365618943767	0.0	0.966656152761689	-0.3320510644462005	0.0	0.967140455367795	-0.37263282636883394	0.0	0.9346343983329538	-0.41486324275280584	0.0	0.9391187045355418	-0.33041434971052736	0.0	0.9520094734353994	-0.2619563098073194	0.0	0.9436452654810605	-0.4148608588259754	0.0	0.9490679914657286	-0.3373457114810658	0.0	0.9557462307752904	-0.2736632880367849	0.0
2	0.06694677871148459	0.9428950447788387	-0.5638592360038065	0.0	0.9424264657284154	-0.5635986111227045	0.0	0.9491561771029279	-0.6777289496716992	0.0	0.9256581454743734	-0.7971863435287592	0.0	0.9608660247079216	-0.8149493664669528	0.0	0.9484532804889467	-0.8216229492609941	0.0	0.9164398234804559	-0.816664104674174	0.0	0.9485767072981686	-0.5631888443845426	0.0	0.9527928502515642	-0.6771363762820773	0.0	0.9358861829246383	-0.7884629476698907	0.0	0.9769658203551937	-0.8052807876680024	0.0	0.973806060173524	-0.8010852973623961	0.0	0.922138701201502	-0.8037101031085542	0.0	0.943976032865052	-0.40699284747866815	0.0	0.9668979352681664	-0.331149177115285	0.0	0.9677429688771064	-0.372131739793646	0.0	0.9343917196928955	-0.41428994764360944	0.0	0.9391446589653228	-0.3298797515455046	0.0	0.9522494163751015	-0.2622514310449303	0.0	0.9439809351189162	-0.4142999837876531	0.0	0.9486253169873777	-0.3371952393839632	0.0	0.9556224100163633	-0.2731730438177216	0.0
3	0.1004201680672269	0.9434419535272272	-0.5632522331555615	0.0	0.942816924135759	-0.5628703775393621	0.0	0.9490444252974065	-0.677944735680377	0.0	0.9255739151186149	-0.7973790872822146	0.0	0.9611101159441768	-0.8153930996373283	0.0	0.9486273661107633	-0.8222794210079307	0.0	0.9158925762041257	-0.8170281343796946	0.0	0.9488959170487258	-0.5623444102662865	0.0	0.9531155515760533	-0.6771688678301349	0.0	0.9362024389677167	-0.7885326394724762	0.0	0.9771443167599488	-0.8052438984299018	0.0	0.9741780492078084	-0.8010986779527076	0.0	0.9223152117984366	-0.8041586589078283	0.0	0.9442268638678102	-0.4063950337602378	0.0	0.9672278069895267	-0.3305781457842784	0.0	0.9683161414979793	-0.37178147836971936	0.0	0.934162136907485	-0.4137413333097912	0.0	0.9391585115346289	-0.3295119698772898	0.0	0.95242739004254	-0.2622373936452325	0.0	0.9443025745098749	-0.4137934225570761	0.0	0.9484132740078328	-0.33691257778923644	0.0	0.9556283627794594	-0.27261693492394473	0.0
4	0.13389355742296918	0.9437840181098484	-0.5626917359607527	0.0	0.9430931344759114	-0.5622419363469501	0.0	0.9489968412397819	-0.678106037906909	0.0	0.9257303492629094	-0.7976564680866007	0.0	0.9613783090047444	-0.8157967013289208	0.0	0.9487399898491916	-0.8228727566089227	0.0	0.915496760218523	-0.8173962187492502	0.0	0.9490587577762977	-0.5616866912937472	0.0	0.9532841517211446	-0.6772150640060384	0.0	0.9363911584911014	-0.7887619526816461	0.0	0.9774063078722033	-0.8053836365009553	0.0	0.9745021401408108	-0.8013289877749518	0.0	0.9225927270182926	-0.8048179281313541	0.0	0.9444436730300306	-0.40606685208445936	0.0	0.9675451722164216	-0.3302741795034621	0.0	0.9688602239237936	-0.37151635352309575	0.0	0.9339736638490526	-0.41323106716393865	0.0	0.9391657475230821	-0.3292844831517113	0.0	0.9525231446550974	-0.26193961018627704	0.0	0.9445658169597905	-0.41336571680877804	0.0	0.9484525443620329	-0.3365637202790021	0.0	0.9557203469654284	-0.2720274215705802	0.0
5	0.16736694677871147	0.9439683075150953	-0.5621993903373924	0.0	0.943290283707677	-0.5617460916757429	0.0	0.949001110510417	-0.6781800200386178	0.0	0.9260475652640995	-0.7978419466913484	0.0	0.961784176045101	-0.8160674935832661	0.0	0.9489571770013537	-0.823255824092986	0.0	0.9152413889454921	-0.8176736138278472	0.0	0.9491250978787723	-0.5612092202073686	0.0	0.9533560017970678	-0.6772481047546287	0.0	0.936537817533793	-0.7890029094190537	0.0	0.9776766459963129	-0.8055927840859349	0.0	0.9748604922077899	-0.8016635746518923	0.0	0.9229321557228498	-0.8054457384047845	0.0	0.9446394730997543	-0.4058717739599424	0.0	0.9677908735442265	-0.33011688654188526	0.0	0.9693656485652394	-0.37127395250219525	0.0	0.9338509050626669	-0.41280660178071926	0.0	0.9391966092923276	-0.3291741588766045	0.0	0.9525749558096163	-0.26149932095367556	0.0	0.9447534894567514	-0.41306243468266857	0.0	0.9486653225765438	-0.3363003301468408	0.0	0.9558443284529369	-0.2715335857793792	0.0
6	0.2008403361344538	0.9440251455139946	-0.5618283932502085	0.0	0.9434256656745507	-0.5613815797222554	0.0	0.9490651850790447	-0.6781103712739138	0.0	0.9264049891838072	-0.7977965117201499	0.0	0.9623593096854133	-0.8161345217915403	0.0	0.9493666059192135	-0.8233386749989619	0.0	0.9151173978741161	-0.8177800164339967	0.0	0.9491772344461286	-0.5608723420736713	0.0	0.9534084401186472	-0.6772057760233503	0.0	0.9367513969781698	-0.7890798487786075	0.0	0.9779538219821607	-0.8057012231023142	0.0	0.9753153291461855	-0.8018961615661006	0.0	0.9233747934477815	-0.8057992610173201	0.0	0.9448213964133276	-0.40572450748506267	0.0	0.9679847909635272	-0.33003362391548463	0.0	0.9698063112758974	-0.3710418703778137	0.0	0.933817820952656	-0.4125374574962704	0.0	0.9392971397547737	-0.32915065491152695	0.0	0.9526313794735488	-0.2610667634984058	0.0	0.9448954403712073	-0.4129240588583712	0.0	0.9489400716600777	-0.33621603011712087	0.0	0.9559894649481567	-0.2712373933007562	0.0
7	0.23431372549019608	0.9439830133495527	-0.561601589793121	0.0	0.9435124647874206	-0.5611030069495767	0.0	0.9491729437015255	-0.677918278431161	0.0	0.9266928659405979	-0.7975281903829619	0.0	0.9630054210090431	-0.8160134436721836	0.0	0.9499351084208564	-0.8231583966132575	0.0	0.915098031895148	-0.8176676510995553	0.0	0.9492580506757652	-0.5606397593661956	0.0	0.953476334400654	-0.6770760122533769	0.0	0.9370862637462034	-0.7889389680269117	0.0	0.9782421805440642	-0.8056535258057607	0.0	0.9758200522726	-0.8019087539955344	0.0	0.9239596275401395	-0.805814768165675	0.0	0.9449823614453807	-0.4055847095428075	0.0	0.9681607179213616	-0.32998688342001053	0.0	0.9701487099956886	-0.37083077606834314	0.0	0.933897913429221	-0.4124427744431524	0.0	0.9395002064721859	-0.3291517917286476	0.0	0.9527181175561342	-0.26070409323816013	0.0	0.9450132147250513	-0.41291789721003797	0.0	0.9492234221862872	-0.3362448742691773	0.0	0.9561706111962801	-0.27108369124086956	0.0
8	0.26778711484593837	0.9438880973561211	-0.5614794627130621	0.0	0.9435435894335498	-0.5608633456108001	0.0	0.9492827416030964	-0.6777013770956323	0.0	0.9268619083525164	-0.7971786860424348	0.0	0.963571347587252	-0.8157944170612486	0.0	0.9505406172907752	-0.8228386243266381	0.0	0.9151740842069247	-0.81735406737742	0.0	0.9493664678562294	-0.5604690513206217	0.0	0.9535478644124885	-0.6769171722882655	0.0	0.9375091061778722	-0.7886891081972488	0.0	0.978485610451309	-0.805519906499276	0.0	0.9762423052690388	-0.8017360477999145	0.0	0.9246289890839767	-0.805622433420525	0.0	0.9451015747566501	-0.40542624859868204	0.0	0.9683361565954678	-0.32993782923775056	0.0	0.9703768388744445	-0.3706567590599654	0.0	0.9340812466686036	-0.4124531297009458	0.0	0.9397908580801958	-0.3291316097590051	0.0	0.9528340270510308	-0.2603838532327335	0.0	0.9451018707174953	-0.412950918979055	0.0	0.9495312727038342	-0.33621993499599845	0.0	0.9563861051767542	-0.270890586645189	0.0
